<svg xmlns="http://www.w3.org/2000/svg" width="105" height="101.125" viewBox="0 0 105 101.125">
  <path id="Path_3" data-name="Path 3" d="M60,64H85.772a6.342,6.342,0,0,0,6.334-6.334V22.334A6.342,6.342,0,0,0,85.772,16H25.834A6.342,6.342,0,0,0,19.5,22.334V57.666A6.342,6.342,0,0,0,25.834,64H27V84.828L39.828,72l8-8H60Zm-8.172-4H46.172l-4,4-8,8L31,75.172V60H25.834A2.337,2.337,0,0,1,23.5,57.666V22.334A2.337,2.337,0,0,1,25.834,20H85.772a2.337,2.337,0,0,1,2.334,2.334V57.666A2.337,2.337,0,0,1,85.772,60H51.828ZM124.5,66.791V89.506a6.8,6.8,0,0,1-6.791,6.791H117v20.828L96.172,96.3H62.791A6.8,6.8,0,0,1,56,89.506V68h4V89.506A2.794,2.794,0,0,0,62.791,92.3H97.828l4,4L113,107.469V92.3h4.709a2.794,2.794,0,0,0,2.791-2.791V66.791A2.794,2.794,0,0,0,117.709,64h-21.6V60h21.6A6.8,6.8,0,0,1,124.5,66.791ZM55.308,44.728V42.694a3.418,3.418,0,0,1,1.146-2.885l1.327-1.266c1.177-1.12,1.885-1.856,1.885-3.24a2.294,2.294,0,0,0-4.564-.149h-3.89c0-3.65,2.827-5.449,6.185-5.449,3.446,0,6.391,1.8,6.391,5.627,0,2.357-1.324,4.005-2.945,5.6l-.971.943a2.4,2.4,0,0,0-1,1.942v.914Zm3.8,1.561H55.071v4.006h4.036ZM92.253,88.3H88.247v-4h4.006ZM92.106,68H88.394V82.738h3.712Z" transform="translate(-19.5 -16)" fill="#fff"/>
</svg>
