<svg xmlns="http://www.w3.org/2000/svg" width="120" height="108" viewBox="0 0 120 108">
  <path id="Path_2" data-name="Path 2" d="M118,58a14.009,14.009,0,0,0-13.84,12H91.9A19.989,19.989,0,0,0,83.64,55.769L89.832,45a14.052,14.052,0,1,0-3.464-2L80.177,53.767a19.8,19.8,0,0,0-16.354,0L57.632,43a14,14,0,1,0-3.464,2L60.36,55.769A19.989,19.989,0,0,0,52.1,70H39.84a14,14,0,1,0,0,4H52.1A19.989,19.989,0,0,0,60.36,88.231L54.168,99a14.057,14.057,0,1,0,3.464,2l6.191-10.767a19.8,19.8,0,0,0,16.354,0L86.368,101a14.016,14.016,0,1,0,3.464-2L83.64,88.231A19.989,19.989,0,0,0,91.9,74H104.16A13.992,13.992,0,1,0,118,58ZM85,32a10.048,10.048,0,1,1,3.39,7.484A10.011,10.011,0,0,1,85,32ZM55.61,39.484A9.986,9.986,0,1,1,59,32,9.988,9.988,0,0,1,55.61,39.484ZM35.8,74a10,10,0,1,1,.2-2A10.016,10.016,0,0,1,35.8,74ZM59,112a10.048,10.048,0,1,1-3.39-7.484A10.011,10.011,0,0,1,59,112Zm29.39-7.484A9.986,9.986,0,1,1,85,112,10,10,0,0,1,88.39,104.516ZM87.861,74A14.458,14.458,0,1,1,88,72,15.983,15.983,0,0,1,87.861,74ZM118,82a10,10,0,1,1,10-10A10.016,10.016,0,0,1,118,82Z" transform="translate(-12 -18)" fill="#fff"/>
</svg>
