<svg xmlns="http://www.w3.org/2000/svg" width="98" height="92" viewBox="0 0 98 92">
  <path id="Path_1" data-name="Path 1" d="M115,25H86a16.009,16.009,0,0,0-14,8.271A16.009,16.009,0,0,0,58,25H29a6.006,6.006,0,0,0-6,6v72.708A6.3,6.3,0,0,0,29.292,110H63a7.008,7.008,0,0,1,7,7h4a7.008,7.008,0,0,1,7-7h33.708A6.3,6.3,0,0,0,121,103.708V31A6.006,6.006,0,0,0,115,25ZM27,31a2,2,0,0,1,2-2H58A12.013,12.013,0,0,1,70,41v60.453A15.949,15.949,0,0,0,58,96H27V31Zm36,75H27v-6H58a12.01,12.01,0,0,1,11.3,8A10.928,10.928,0,0,0,63,106Zm54-2.292V106H81a10.928,10.928,0,0,0-6.3,2A12.01,12.01,0,0,1,86,100h31ZM117,94v2H86a15.949,15.949,0,0,0-12,5.453V41A12.013,12.013,0,0,1,86,29h29a2,2,0,0,1,2,2V94Z" transform="translate(-23 -25)" fill="#fff"/>
</svg>
