<svg xmlns="http://www.w3.org/2000/svg" width="108" height="71.996" viewBox="0 0 108 71.996">
  <g id="Group_1" data-name="Group 1" transform="translate(-17.945 -36.81)">
    <path id="Path_4" data-name="Path 4" d="M41.01,91.467a6,6,0,0,0-4-5.651V65.375l-4-1.332V85.816a5.99,5.99,0,0,0-1.173,10.737L29.01,108.806h12L38.184,96.553A5.992,5.992,0,0,0,41.01,91.467Z" fill="#fff"/>
    <path id="Path_5" data-name="Path 5" d="M72,36.81l-54.055,18L72,72.81l53.945-18Zm0,31.784L30.606,54.81,72,41.027,113.307,54.81Z" fill="#fff"/>
    <path id="Path_6" data-name="Path 6" d="M94.99,69.356,72,77.027,49.01,69.371l-4-1.332V89.118q1.944,1.209,4,2.243a51.023,51.023,0,0,0,45.98-.056q2.054-1.042,4-2.257V68.022Zm0,14.865v2.55q-.891.5-1.809.966c-.227.115-.46.213-.689.324-.111.055-.224.105-.336.159q-1.14.544-2.3,1.027c-.14.058-.282.114-.424.17q-1.153.465-2.324.867c-.142.049-.284.1-.427.143q-1.187.395-2.391.722c-.148.041-.295.081-.444.12q-1.2.313-2.411.562c-.17.035-.339.072-.51.106-.785.152-1.576.28-2.371.392-.2.029-.4.063-.609.089-.779.1-1.563.173-2.35.233-.219.017-.435.043-.655.057-.992.061-1.99.1-3,.1s-1.991-.036-2.978-.1c-.223-.014-.442-.041-.664-.058-.777-.059-1.552-.131-2.322-.228-.209-.027-.415-.061-.623-.091-.784-.11-1.564-.236-2.34-.385-.176-.034-.351-.072-.527-.109q-1.194-.243-2.374-.549c-.157-.041-.313-.084-.469-.126q-1.182-.321-2.348-.705c-.152-.05-.305-.1-.456-.152q-1.149-.392-2.28-.845c-.152-.061-.3-.12-.454-.182q-1.135-.468-2.253-1c-.123-.059-.248-.114-.371-.174-.224-.108-.452-.2-.676-.316q-.914-.46-1.8-.955V73.587L72,81.243l1.265-.422L94.99,73.573Z" fill="#fff"/>
  </g>
</svg>
